# AST/ASF file generated using VICON BodyLanguage
# -----------------------------------------------
:version 1.10
:name VICON
:units
  mass 1.0
  length 0.45
  angle deg
:documentation
   .ast/.asf automatically generated from VICON data using
   VICON BodyBuilder and BodyLanguage model FoxedUp or BRILLIANT.MOD
:root
   order TX TY TZ RX RY RZ
   axis XYZ
   position 0 0 0  
   orientation 0 0 0 
:bonedata
  begin
     id 1 
     name lhipjoint
     direction 0.78388 -0.462562 0.414208 
     length 3.01181 
     axis 0 0 0  XYZ
  end
  begin
     id 2 
     name lfemur
     direction 0.34202 -0.939693 0  
     length 6.04673  
     axis 0 0 20  XYZ
    dof rx ry rz
    limits (-160.0 20.0)
           (-70.0 70.0)
           (-60.0 70.0)
  end
  begin
     id 3 
     name ltibia
     direction 0.34202 -0.939693 0   
     length 7.211   
     axis 0 0 20   XYZ
    dof rx
    limits (-10.0 170.0)
  end
  begin
     id 4 
     name lfoot
     direction 0.121887 -0.334882 0.934344   
     length 2.13567   
     axis -90 7.62852e-016 20   XYZ
    dof rx rz
    limits (-45.0 90.0)
           (-70.0 20.0)
  end
  begin
     id 5 
     name ltoes
     direction 1.53555e-011 -4.2179e-011 1   
     length 1.05957   
     axis -90 7.62852e-016 20   XYZ
    dof rx
    limits (-90.0 20.0)
  end
  begin
     id 6 
     name rhipjoint
     direction -0.769387 -0.475875 0.426129   
     length 2.92756  
     axis 0 0 0  XYZ 
  end
  begin
     id 7 
     name rfemur
     direction -0.34202 -0.939693 0   
     length 6.35468   
     axis 0 0 -20   XYZ
    dof rx ry rz
    limits (-160.0 20.0)
           (-70.0 70.0)
           (-70.0 60.0)
  end
  begin
     id 8 
     name rtibia
     direction -0.34202 -0.939693 0   
     length 7.37886   
     axis 0 0 -20   XYZ
    dof rx
    limits (-10.0 170.0)
 end
 begin
     id 9 
     name rfoot
     direction -0.101763 -0.279592 0.954711   
     length 2.21478  
     axis -90 -7.62852e-016 -20   XYZ
    dof rx rz
    limits (-45.0 90.0)
           (-20.0 70.0)
  end
  begin
     id 10 
     name rtoes
     direction -1.53494e-011 -4.21851e-011 1   
     length 1.10506   
     axis -90 -7.62852e-016 -20   XYZ
    dof rx
    limits (-90.0 20.0)
  end
  begin
     id 11 
     name lowerback
     direction 0.00747405 0.999267 0.0375481   
     length 2.13259   
     axis 0 0 0   XYZ
    dof rx ry rz
    limits (-20.0 45.0)
           (-30.0 30.0)
           (-30.0 30.0)
  end
  begin
     id 12 
     name upperback
     direction 0.00661626 0.996177 0.0871029   
     length 2.10528   
     axis 0 0 0   XYZ
    dof rx ry rz
    limits (-20.0 45.0)
           (-30.0 30.0)
           (-30.0 30.0)
  end
  begin
     id 13 
     name thorax
     direction 0.00320659 0.997679 0.0680167   
     length 2.11338   
     axis 0 0 0   XYZ
    dof rx ry rz
    limits (-20.0 45.0)
           (-30.0 30.0)
           (-30.0 30.0)
  end
  begin
     id 14 
     name lowerneck
     direction 0.0374841 0.973033 0.227602   
     length 1.42765   
     axis 0 0 0   XYZ
    dof rx ry rz
    limits (-20.0 45.0)
           (-30.0 30.0)
           (-30.0 30.0)
  end
  begin
     id 15 
     name upperneck
     direction 0.00481585 0.989155 -0.146795   
     length 1.47593   
     axis 0 0 0   XYZ
    dof rx ry rz
    limits (-20.0 45.0)
           (-30.0 30.0)
           (-30.0 30.0)
  end
  begin
     id 16
     name head
     direction -0.00292522 0.997206 -0.0746423  
     length 1.48116  
     axis 0 0 0   XYZ
    dof rx ry rz
    limits (-20.0 45.0)
           (-30.0 30.0)
           (-30.0 30.0)
  end
  begin
     id 17 
     name lclavicle
     direction 0.951444 0.305606 0.0368784  
     length 3.01855  
     axis 0 0 0   XYZ
    dof ry rz
    limits (-20.0 10.0)
           (0.0 20.0)
  end
  begin
     id 18 
     name lhumerus
     direction 1 -4.48977e-011 2.61664e-027   
     length 5.52731   
     axis 180 -30 -90   XYZ
    dof rx ry rz
    limits (-60.0 90.0)
           (-90.0 90.0)
           (-90.0 90.0)
  end
  begin
     id 19
     name lradius
     direction 1 -4.48944e-011 8.22157e-027   
     length 3.11059   
     axis 180 -30 -90   XYZ
    dof rx
    limits (-10.0 170.0)
  end
  begin
     id 20
     name lwrist
     direction 1 -4.48976e-011 1.5779e-026   
     length 1.5553   
     axis -1.15221e-014 90 90   XYZ
    dof ry
    limits (-180.0 0.0)
 end
  begin
     id 21 
     name lhand
     direction 1 -4.49025e-011 3.1558e-026   
     length 0.419626   
     axis -2.01367e-014 90 90   XYZ
    dof rx rz
    limits (-90.0 90.0)
           (-45.0 45.0)
  end
  begin
     id 22 
     name lfingers
     direction 1 -4.4904e-011 6.31161e-026   
     length 0.338313   
     axis -4.02734e-014 90 90   XYZ
    dof rx
    limits (0.0 90.0)
  end
  begin
     id 23
     name lthumb
     direction 0.707107 -6.35004e-011 0.707107   
     length 0.485752   
     axis -90 45 2.85299e-015   XYZ
    dof rx rz
    limits (-45.0 45.0)
           (-45.0 45.0)
  end
  begin
     id 24 
     name rclavicle
     direction -0.968876 0.223791 0.105816   
     length 3.04177  
     axis 0 0 0   XYZ 
    dof ry rz
    limits (-10.0 20.0)
           (-20.0 0.0)
  end
  begin
     id 25 
     name rhumerus
     direction -1 -4.48962e-011 -1.01384e-027  
     length 5.25396   
     axis 180 30 90   XYZ
    dof rx ry rz
    limits (-90.0 60.0)
           (-90.0 90.0)
           (-90.0 90.0)
  end
  begin
     id 26 
     name rradius
     direction -1 -4.48955e-011 8.88542e-027   
     length 3.10567   
     axis 180 30 90   XYZ
    dof rx
    limits (-10.0 170.0)
  end
  begin
     id 27 
     name rwrist
     direction -1 -4.48994e-011 1.5779e-026   
     length 1.55283   
     axis -1.15221e-014 -90 -90   XYZ
    dof ry
    limits (-180.0 0.0)
  end
  begin
     id 28
     name rhand
     direction -1 -4.48891e-011 3.1558e-026   
     length 0.498676   
     axis -2.01367e-014 -90 -90   XYZ
    dof rx rz
    limits (-90.0 90.0)
           (-45.0 45.0)
  end
  begin
     id 29
     name rfingers
     direction -1 -4.48972e-011 6.31161e-026   
     length 0.402045   
     axis -4.02734e-014 -90 -90   XYZ
    dof rx
    limits (0.0 90.0)
  end
  begin
     id 30
     name rthumb
     direction -0.707107 -6.34849e-011 0.707107   
     length 0.577259   
     axis -90 -45 -2.85299e-015   XYZ
    dof rx rz
    limits (-45.0 45.0)
           (-45.0 45.0)
  end
:hierarchy
  begin
    root lhipjoint rhipjoint lowerback
    lhipjoint lfemur
    lfemur ltibia
    ltibia lfoot
    lfoot ltoes
    rhipjoint rfemur
    rfemur rtibia
    rtibia rfoot
    rfoot rtoes
    lowerback upperback
    upperback thorax
    thorax lowerneck lclavicle rclavicle
    lowerneck upperneck
    upperneck head
    lclavicle lhumerus
    lhumerus lradius
    lradius lwrist
    lwrist lhand lthumb
    lhand lfingers
    rclavicle rhumerus
    rhumerus rradius
    rradius rwrist
    rwrist rhand rthumb
    rhand rfingers
  end

#!OML:ASF H:\Pregnant\Project 1\Capture day 1\Session 1\femalepreg.ASF
:FULLY-SPECIFIED
:DEGREES
62
root 2.36857 1.61382 20.0246 -39.4612 -83.8367 -18.9562
lowerback 17.0458 -1.28686 -14.0461
upperback 14.1103 -4.62099 -1.82652
thorax 7.01807 -4.06612 6.2069
lowerneck -28.495 -1.63508 -0.379511
upperneck 35.964 -4.43709 2.92937
head 18.4483 -1.64002 0.294413
rclavicle -1.1778e-013 7.35503e-014
rhumerus -84.2993 18.277 -69.7705
rradius 34.1903
rwrist -3.63193
rhand -56.8757 -45.3574
rfingers 7.12502
rthumb 150.827 -253.091
lclavicle -1.1778e-013 7.35503e-014
lhumerus -97.2516 6.10643 52.3329
lradius 34.2231
lwrist 100.389
lhand 115.453 64.7993
lfingers 7.12502
lthumb 143.531 38.5994
rfemur -94.6029 -7.93715 -5.26193
rtibia 133.77
rfoot 10.9763 25.767
rtoes -19.8533
lfemur -91.4293 3.95243 6.6731
ltibia 124.181
lfoot 16.9043 -30.8318
ltoes -23.9084
63
root 2.37491 1.60803 20.0281 -39.1949 -83.8122 -19.2573
lowerback 17.2299 -1.25825 -14.3692
upperback 14.1132 -4.66552 -1.77808
thorax 6.98521 -4.12332 6.45099
lowerneck -28.3406 -1.77962 -0.630701
upperneck 36.0007 -4.52823 2.89502
head 18.4377 -1.72436 0.299746
rclavicle -4.32357e-015 -4.53229e-014
rhumerus -84.0747 18.5082 -69.1512
rradius 35.2213
rwrist -3.43468
rhand -56.6902 -45.0735
rfingers 7.12502
rthumb 151.004 -252.838
lclavicle -4.32357e-015 -4.53229e-014
lhumerus -97.5519 6.41264 52.4051
lradius 34.5348
lwrist 100.561
lhand 115.475 64.1595
lfingers 7.12502
lthumb 143.552 37.9545
rfemur -94.5721 -7.63935 -5.30809
rtibia 133.74
rfoot 10.9676 25.6406
rtoes -19.7823
lfemur -91.477 3.84269 6.65397
ltibia 124.159
lfoot 17.0513 -30.7605
ltoes -23.8386
64
root 2.3809 1.60179 20.0321 -39.0093 -83.7928 -19.4849
lowerback 17.4074 -1.24207 -14.7097
upperback 14.1176 -4.72965 -1.73635
thorax 6.96517 -4.19276 6.69793
lowerneck -28.1815 -1.87957 -0.812766
upperneck 36.0317 -4.56713 2.81692
head 18.4175 -1.78496 0.285254
rclavicle 1.29806e-013 5.04913e-014
rhumerus -83.7998 18.7845 -68.507
rradius 36.3642
rwrist -3.36284
rhand -56.5154 -44.8279
rfingers 7.12502
rthumb 151.171 -252.621
lclavicle 1.29806e-013 5.04913e-014
lhumerus -97.8873 6.7454 52.4923
lradius 34.8659
lwrist 100.776
lhand 115.499 63.4412
lfingers 7.12502
lthumb 143.575 37.2303
rfemur -94.5466 -7.34885 -5.35909
rtibia 133.71
rfoot 10.9698 25.5282
rtoes -19.6973
lfemur -91.5212 3.74411 6.62715
ltibia 124.144
lfoot 17.1998 -30.6892
ltoes -23.7406
65
root 2.38658 1.59538 20.0368 -38.8863 -83.779 -19.6571
lowerback 17.5746 -1.2358 -15.0453
upperback 14.1235 -4.80591 -1.70444
thorax 6.95495 -4.26815 6.93143
lowerneck -28.0137 -1.94913 -0.952402
upperneck 36.0558 -4.5712 2.71662
head 18.3882 -1.82927 0.261549
rclavicle 7.9812e-014 6.44062e-014
rhumerus -83.4634 19.0744 -67.8249
rradius 37.5938
rwrist -3.40524
rhand -56.3616 -44.6233
rfingers 7.12502
rthumb 151.318 -252.441
lclavicle 7.9812e-014 6.44062e-014
lhumerus -98.2389 7.0819 52.5983
lradius 35.2071
lwrist 101.026
lhand 115.525 62.6617
lfingers 7.12502
lthumb 143.599 36.4447
rfemur -94.5214 -7.06567 -5.41346
rtibia 133.678
rfoot 10.9785 25.4293
rtoes -19.6055
lfemur -91.5601 3.65583 6.59421
ltibia 124.135
lfoot 17.3484 -30.6177
ltoes -23.6179
66
root 2.39196 1.58902 20.0419 -38.8061 -83.7714 -19.7937
lowerback 17.7267 -1.23701 -15.3496
upperback 14.1324 -4.88586 -1.68736
thorax 6.95226 -4.34236 7.1306
lowerneck -27.8384 -2.00253 -1.07446
upperneck 36.0746 -4.55911 2.61527
head 18.353 -1.86493 0.238393
rclavicle 4.57205e-015 -2.56432e-014
rhumerus -83.0547 19.3384 -67.0912
rradius 38.8807
rwrist -3.54444
rhand -56.24 -44.4347
rfingers 7.12502
rthumb 151.434 -252.272
lclavicle 4.57205e-015 -2.56432e-014
lhumerus -98.5836 7.39674 52.7262
lradius 35.5496
lwrist 101.305
lhand 115.552 61.8392
lfingers 7.12502
lthumb 143.625 35.6157
rfemur -94.492 -6.79 -5.46926
rtibia 133.643
rfoot 10.9911 25.3426
rtoes -19.5139
lfemur -91.5923 3.57746 6.55716
ltibia 124.132
lfoot 17.4943 -30.5473
ltoes -23.4805
67
root 2.39705 1.58293 20.0475 -38.7529 -83.7695 -19.9102
lowerback 17.8611 -1.24445 -15.6052
upperback 14.1454 -4.96429 -1.68744
thorax 6.95517 -4.41092 7.28277
lowerneck -27.6599 -2.04936 -1.19623
upperneck 36.0919 -4.54241 2.52481
head 18.3167 -1.89705 0.221548
rclavicle -1.05753e-013 -3.95581e-014
rhumerus -82.5599 19.5456 -66.2895
rradius 40.1946
rwrist -3.7546
rhand -56.1621 -44.1971
rfingers 7.12502
rthumb 151.509 -252.047
lclavicle -1.05753e-013 -3.95581e-014
lhumerus -98.9052 7.67482 52.8785
lradius 35.8861
lwrist 101.607
lhand 115.581 61.0021
lfingers 7.12502
lthumb 143.653 34.7717
rfemur -94.4552 -6.52298 -5.52552
rtibia 133.604
rfoot 11.0061 25.2673
rtoes -19.4281
lfemur -91.6166 3.50763 6.51786
ltibia 124.134
lfoot 17.6357 -30.4785
ltoes -23.3365
68
root 2.40191 1.57723 20.0535 -38.7199 -83.7726 -20.0133
lowerback 17.9775 -1.25721 -15.807
upperback 14.1633 -5.03872 -1.70376
thorax 6.96294 -4.47212 7.38576
lowerneck -27.4825 -2.09322 -1.32681
upperneck 36.1099 -4.52393 2.4495
head 18.282 -1.92731 0.213839
rclavicle 4.41302e-014 -3.49861e-014
rhumerus -81.964 19.6747 -65.4017
rradius 41.5082
rwrist -3.99766
rhand -56.1379 -43.8102
rfingers 7.12502
rthumb 151.532 -251.664
lclavicle 4.41302e-014 -3.49861e-014
lhumerus -99.195 7.91232 53.0559
lradius 36.2109
lwrist 101.927
lhand 115.613 60.1829
lfingers 7.12502
lthumb 143.682 33.9451
rfemur -94.4077 -6.26486 -5.58252
rtibia 133.56
rfoot 11.0248 25.2017
rtoes -19.352
lfemur -91.6304 3.44435 6.47751
ltibia 124.14
lfoot 17.7699 -30.4121
ltoes -23.1968
69
root 2.4066 1.57199 20.0599 -38.7096 -83.7798 -20.1005
lowerback 18.0785 -1.27445 -15.9657
upperback 14.1854 -5.10996 -1.72991
thorax 6.97576 -4.52777 7.4528
lowerneck -27.3079 -2.13117 -1.46282
upperneck 36.1284 -4.49675 2.38067
head 18.2486 -1.9537 0.212228
rclavicle 6.43068e-014 5.14852e-014
rhumerus -81.2508 19.7189 -64.4081
rradius 42.7993
rwrist -4.21951
rhand -56.1723 -43.1497
rfingers 7.12502
rthumb 151.499 -250.998
lclavicle 6.43068e-014 5.14852e-014
lhumerus -99.4553 8.11963 53.2594
lradius 36.52
lwrist 102.258
lhand 115.647 59.4204
lfingers 7.12502
lthumb 143.714 33.1746
rfemur -94.3472 -6.01571 -5.64193
rtibia 133.512
rfoot 11.0484 25.1447
rtoes -19.2887
lfemur -91.6309 3.38519 6.43656
ltibia 124.146
lfoot 17.8941 -30.3481
ltoes -23.0708
70
root 2.4112 1.56724 20.0663 -38.7342 -83.79 -20.1606
lowerback 18.1682 -1.29527 -16.0986
upperback 14.2102 -5.18013 -1.75926
thorax 6.99347 -4.58085 7.50106
lowerneck -27.1327 -2.15716 -1.5964
upperneck 36.1446 -4.45083 2.30861
head 18.213 -1.97265 0.213208
rclavicle 6.55989e-015 -2.46493e-014
rhumerus -80.4097 19.6748 -63.2956
rradius 44.0511
rwrist -4.34787
rhand -56.2612 -42.0864
rfingers 7.12502
rthumb 151.414 -249.921
lclavicle 6.55989e-015 -2.46493e-014
lhumerus -99.6945 8.31062 53.4865
lradius 36.8115
lwrist 102.595
lhand 115.684 58.7374
lfingers 7.12502
lthumb 143.75 32.4828
rfemur -94.2711 -5.77362 -5.70627
rtibia 133.458
rfoot 11.0794 25.0946
rtoes -19.2409
lfemur -91.6136 3.32793 6.39461
ltibia 124.152
lfoot 18.0035 -30.2871
ltoes -22.9712
71
root 2.41581 1.56298 20.0729 -38.7994 -83.8029 -20.188
lowerback 18.2501 -1.31898 -16.2207
upperback 14.2358 -5.25129 -1.7858
thorax 7.0155 -4.63397 7.54589
lowerneck -26.9515 -2.1665 -1.72018
upperneck 36.1553 -4.37883 2.2251
head 18.1712 -1.9815 0.213443
rclavicle 7.65321e-015 -1.37161e-014
rhumerus -79.4392 19.5381 -62.0612
rradius 45.2543
rwrist -4.30008
rhand -56.388 -40.5141
rfingers 7.12502
rthumb 151.293 -248.328
lclavicle 7.65321e-015 -1.37161e-014
lhumerus -99.9214 8.49733 53.7346
lradius 37.0851
lwrist 102.935
lhand 115.724 58.1322
lfingers 7.12502
lthumb 143.788 31.8681
rfemur -94.1775 -5.53671 -5.77688
rtibia 133.397
rfoot 11.1186 25.0498
rtoes -19.2115
lfemur -91.5755 3.27099 6.35213
ltibia 124.156
lfoot 18.0957 -30.2296
ltoes -22.9066
72
root 2.42049 1.55919 20.0793 -38.9115 -83.8183 -20.1764
lowerback 18.3271 -1.34465 -16.3443
upperback 14.2601 -5.32468 -1.80419
thorax 7.04084 -4.68901 7.60034
lowerneck -26.762 -2.15817 -1.83256
upperneck 36.1609 -4.27842 2.12586
head 18.1228 -1.97979 0.21117
rclavicle 1.50082e-014 -2.74323e-014
rhumerus -78.348 19.3049 -60.7141
rradius 46.4062
rwrist -3.99889
rhand -56.5253 -38.3803
rfingers 7.12502
rthumb 151.162 -246.172
lclavicle 1.50082e-014 -2.74323e-014
lhumerus -100.144 8.68877 54.0037
lradius 37.3418
lwrist 103.275
lhand 115.764 57.5757
lfingers 7.12502
lthumb 143.825 31.3022
rfemur -94.0659 -5.30373 -5.85462
rtibia 133.33
rfoot 11.1657 25.01
rtoes -19.2041
lfemur -91.5148 3.21395 6.3093
ltibia 124.156
lfoot 18.1685 -30.1764
ltoes -22.8871
73
root 2.42526 1.55583 20.0856 -39.0595 -83.8362 -20.1355
lowerback 18.4008 -1.37224 -16.4734
upperback 14.2808 -5.40114 -1.81101
thorax 7.06723 -4.74656 7.67078
lowerneck -26.5641 -2.13662 -1.93837
upperneck 36.1663 -4.15494 2.01073
head 18.0708 -1.97049 0.205792
rclavicle 1.91827e-014 -2.46493e-014
rhumerus -77.1554 18.9717 -59.2776
rradius 47.5109
rwrist -3.38691
rhand -56.6369 -35.7034
rfingers 7.12502
rthumb 151.055 -243.477
lclavicle 1.91827e-014 -2.46493e-014
lhumerus -100.367 8.88797 54.2952
lradius 37.5832
lwrist 103.615
lhand 115.802 57.0206
lfingers 7.12502
lthumb 143.862 30.7381
rfemur -93.937 -5.0756 -5.93779
rtibia 133.256
rfoot 11.2185 24.9754
rtoes -19.221
lfemur -91.4329 3.1573 6.26834
ltibia 124.151
lfoot 18.2261 -30.1275
ltoes -22.91
74
root 2.4301 1.55283 20.0916 -39.2192 -83.857 -20.0868
lowerback 18.4704 -1.40188 -16.6019
upperback 14.2962 -5.47962 -1.80589
thorax 7.09204 -4.80511 7.75441
lowerneck -26.3607 -2.11166 -2.04867
upperneck 36.179 -4.02202 1.88574
head 18.0212 -1.95983 0.198688
rclavicle 1.02871e-013 4.57205e-014
rhumerus -75.8922 18.5356 -57.7891
rradius 48.5782
rwrist -2.44371
rhand -56.6882 -32.5817
rfingers 7.12502
rthumb 151.006 -240.347
lclavicle 1.02871e-013 4.57205e-014
lhumerus -100.588 9.08913 54.6123
lradius 37.8111
lwrist 103.957
lhand 115.837 56.4211
lfingers 7.12502
lthumb 143.895 30.1304
rfemur -93.7943 -4.85477 -6.02249
rtibia 133.177
rfoot 11.2753 24.9461
rtoes -19.2606
lfemur -91.3344 3.10295 6.23275
ltibia 124.142
lfoot 18.2741 -30.0835
ltoes -22.971
